<svg version="1.1" id="Layer_1" xmlns="http://www.w3.org/2000/svg" xmlns:xlink="http://www.w3.org/1999/xlink" x="0px" y="0px"
	 width="100%" viewBox="0 0 816 816" enable-background="new 0 0 816 816" xml:space="preserve">
<path fill="#000000" opacity="1.000000" stroke="none" 
	d="
M639.058533,141.054184 
	C642.325500,140.103638 645.210022,139.284348 648.087280,138.440125 
	C663.311035,133.973175 676.459412,143.371307 677.195740,159.279007 
	C677.543823,166.799164 675.263489,173.738495 672.309753,180.500153 
	C663.309143,201.104248 648.061768,216.589844 630.919373,230.395828 
	C597.788635,257.078308 560.948181,277.768250 523.280212,297.227661 
	C482.720642,318.180908 443.243927,341.114105 403.992920,364.420654 
	C403.563171,364.675812 403.146515,364.953033 402.716675,365.208038 
	C393.048645,370.943695 393.073914,370.926086 399.364532,380.183929 
	C409.002625,394.368134 423.339691,401.897430 438.625122,408.184509 
	C460.939545,417.362671 484.588562,421.705597 507.806366,427.657379 
	C528.774414,433.032501 549.802795,438.309387 569.936340,446.470184 
	C575.348145,448.663727 580.673828,451.099274 585.157654,454.946564 
	C591.658447,460.524506 595.285645,467.444397 593.251343,476.126709 
	C591.222534,484.785583 584.935791,489.020508 576.471985,490.324463 
	C526.972717,497.950378 478.188904,509.336945 428.976440,518.492981 
	C380.073151,527.591431 331.442139,538.295715 284.463654,555.175903 
	C276.013702,558.212158 267.889160,562.143555 259.532440,565.454895 
	C256.149963,566.795227 254.364151,569.053284 252.985779,572.369568 
	C236.369568,612.347534 209.615692,643.458374 171.678833,664.680237 
	C165.254425,668.274109 158.535034,671.103149 151.258835,672.550293 
	C130.704071,676.638489 111.318306,661.865356 109.796310,640.933350 
	C108.671051,625.457581 114.092659,612.090637 123.313126,600.140259 
	C137.686523,581.511414 156.790466,568.841492 177.482269,558.379150 
	C197.933228,548.038635 219.326981,540.180420 241.719330,535.207947 
	C245.437805,534.382202 246.316849,532.064941 246.855774,528.882751 
	C254.212143,485.444794 249.444260,443.917236 230.039703,403.814819 
	C212.118591,366.778137 193.024734,330.307587 176.101486,292.787354 
	C175.150528,290.679016 174.263016,288.430145 171.824829,287.494476 
	C162.440125,283.893036 159.582352,273.375671 165.797470,262.558136 
	C170.908264,253.662781 180.980133,251.219650 189.990753,256.502380 
	C194.106827,258.915527 197.220078,262.367828 199.994919,266.151306 
	C223.815887,298.631317 242.486618,333.793976 255.168732,372.080078 
	C262.885620,395.376740 268.887207,419.114594 270.874939,443.592133 
	C272.492554,463.512451 271.838898,483.522064 269.688507,503.427948 
	C268.767181,511.956360 267.570496,520.455017 266.317902,530.405029 
	C356.048706,512.873901 446.022400,501.335785 535.648438,481.693237 
	C533.246277,478.912415 531.365173,478.815643 529.731506,478.415192 
	C488.219391,468.239227 449.986450,450.526917 413.880737,427.964447 
	C399.938812,419.252106 387.187073,408.998444 377.224304,395.839813 
	C356.509094,368.479584 354.691650,339.084229 368.794556,308.262054 
	C380.736328,282.163055 399.745361,261.917053 421.731171,244.082123 
	C456.313660,216.028793 495.416718,195.643524 535.500305,176.950577 
	C559.980103,165.534470 584.912415,155.211182 611.039917,148.093613 
	C620.199463,145.598419 629.458923,143.469910 639.058533,141.054184 
M466.073425,241.600464 
	C449.143951,255.442352 433.259674,270.362915 419.589569,287.485687 
	C407.356842,302.808105 396.734802,319.085388 391.901489,338.425201 
	C390.901093,342.428101 389.291595,346.560638 390.959015,351.149231 
	C392.183411,350.511200 393.095459,350.127106 393.912781,349.596985 
	C444.353851,316.882721 494.988312,284.443237 541.722229,246.419724 
	C570.284546,223.180878 598.256775,199.279831 623.746338,172.628876 
	C627.146606,169.073700 630.548035,165.452652 632.498108,160.422119 
	C569.751526,172.031204 516.007935,202.084412 466.073425,241.600464 
M193.171997,620.663147 
	C207.047134,610.453308 218.618332,598.225281 226.666855,582.861572 
	C218.751038,585.963257 211.770981,590.486145 204.767441,594.917480 
	C190.281204,604.083496 175.762375,613.248413 163.925964,625.910339 
	C161.729965,628.259460 159.275162,630.542236 158.874557,634.705322 
	C171.698318,633.214355 182.413498,627.841858 193.171997,620.663147 
z"/>
<path fill="#000000" opacity="1.000000" stroke="none" 
	d="
M728.036865,429.641785 
	C742.440857,430.590393 751.742371,439.437958 754.038513,453.934967 
	C755.760498,464.806641 749.206482,476.310974 738.703552,480.446838 
	C728.975281,484.277618 719.901245,482.689087 712.198181,475.757904 
	C704.245850,468.602417 701.417419,459.581451 704.433899,449.066925 
	C707.334229,438.957062 713.514038,432.194702 724.112793,430.043335 
	C725.249634,429.812531 726.426147,429.776917 728.036865,429.641785 
z"/>
</svg>